<?xml version="1.0" encoding="UTF-8"?>
<svg id="Layer_2" data-name="Layer 2" xmlns="http://www.w3.org/2000/svg" viewBox="0 0 736 793">
  <defs>
    <style>
      .cls-1, .cls-2 {
        stroke-width: 0px;
      }

      .cls-2 {
        fill: #fff;
      }
    </style>
  </defs>
  <g id="Layer_1-2" data-name="Layer 1">
    <g>
      <path class="cls-1" d="M0,640c0-3.33,0-6.67,0-10,.25-1.11.65-2.2.74-3.32,1.53-19.61,7.01-38.3,13.68-56.64,13.94-38.32,28.05-76.58,42.24-114.82,24.35-65.62,36.44-133.47,37.46-203.39.44-30.15.76-60.3,1.94-90.43,1.17-30.12,5.58-59.69,19.5-87.05.07-.13-.3-.49.04.04-9.84,1.72-19.26,3.95-28.8,4.85-8.61.81-17.96-6.16-20.22-13.58-2.16-7.09,1.81-18.92,8.16-22.69,22.44-13.29,45.4-13.8,68.55-1.94,2.36,1.21,3.91,1.47,6.29.25C191.29,19.88,235.83,8.16,282.23,2.93,291.81,1.86,301.41.97,311,0c14.33,0,28.67,0,43,0,1.3.26,2.58.67,3.89.75,28.19,1.71,55.93,6.29,83.28,13.22,22.43,5.68,45.05,10.81,65.76,21.79,1.27.67,4.05-.17,5.43-1.22,14.45-11.02,30.4-18.64,48.48-21.06,13.08-1.75,26.05-1.47,37.43,6.67,8.37,5.98,11.28,16.21,8.08,27.33-2.61,9.07-6.83,12-18.85,12.94-2.49.19-4.99.2-7.49.16-8.83-.17-17.65-.58-26.48-.52-3.87.03-7.74.98-12.35,1.62,1.42,1.92,2.13,3,2.97,3.99,8.59,10.13,15.17,21.45,20.15,33.75,9.68,23.89,12.28,48.97,12.68,74.44,1.11,71.86,6.12,143.46,14.24,214.86.12,1.1.53,2.17.82,3.33.76-.25,1.26-.33,1.68-.56,27.88-15.25,55.38-12.48,81.75,3.18,32.52,19.31,50.29,49.11,57.47,85.66,1.41,7.15,2.06,14.46,3.06,21.69v25c-.3,1.45-.76,2.88-.88,4.35-4.14,53.73-28.92,96.18-70.77,129.2-12.02,9.48-24.84,17.43-40.9,18.01-1.05.04-2.54,1.45-2.98,2.56-9.06,22.97-22.86,42.02-45.42,54.6,1.98,1.05,3.49,1.67,4.8,2.58,7.09,4.9,14.98,9.02,21.02,15,15.13,14.98,10.67,30.56-9.82,36.58-3.03.89-6.18,1.35-9.27,2.02-1.6.35-3.19.74-4.79,1.12h-20c-8.84-1.5-17.98-2.01-26.45-4.67-25.56-8.01-51.32-15.67-76.16-25.6-77.25-30.89-156.85-37.68-238.61-26-45.5,6.5-88.98,19.54-130.92,38.41-13.24,5.96-27.48,10.37-41.72,13.26-20.87,4.24-30.22-6.5-25.17-27.06,3.41-13.89,12.2-24.24,22.67-33.33,4.23-3.68,8.8-6.97,13.5-10.67-2.71-1.86-5.2-3.51-7.62-5.24-17.87-12.8-33.73-27.43-41.2-48.85C2.74,655.78,1.73,647.76,0,640ZM342.52,279.54c-.17,0-.34,0-.51,0,0-10.82.06-21.64-.02-32.45-.08-10.99-.36-21.97-.45-32.95-.03-3.44-1.46-4.41-4.9-4.32-26.43.67-51.29,7.16-74.72,19.4-2.72,1.42-2.89,2.89-2.18,5.52,2.57,9.47,4.55,19.12,7.41,28.5,6.45,21.15,13.35,42.17,19.95,63.28,3.12,9.98,9.97,15.52,20.03,17.06,9.69,1.48,19.47,2.37,29.17,3.79,4.93.72,6.35-1.11,6.3-5.89-.19-20.64-.08-41.29-.08-61.93ZM350.26,276.83s-.08,0-.12,0c0,18.48-.04,36.97.03,55.45.01,3.82.51,7.64.6,11.47.07,3.03,1.45,4.13,4.4,3.82,11.08-1.18,22.16-2.24,33.24-3.42,10.21-1.09,16.03-6.91,18.52-16.75,4.28-16.94,9.32-33.71,13.11-50.75,2.99-13.45,4.69-27.21,6.68-40.87.24-1.67-.71-4.56-2-5.26-21.3-11.53-43.63-19.68-68.21-20.63-4.97-.19-6.34,1.38-6.31,6,.13,20.31.06,40.63.06,60.95ZM343.82,134.18c-20.05,1.68-40.14,2.97-60.12,5.23-7.47.85-14.88,3.45-21.95,6.19-5.06,1.96-5.11,5.67-1.01,9.21,1,.87,2.09,1.66,3.23,2.34,20.26,12.05,42.13,18.74,65.73,19.71,29.01,1.19,56.46-5.52,83.07-16.39,3.67-1.5,7.22-3.48,10.46-5.77,5.03-3.56,4.83-6.94-.57-9.74-3.21-1.67-6.73-2.94-10.26-3.74-22.54-5.13-45.5-5.73-68.57-7.04Z"/>
      <path class="cls-2" d="M736,502c-1-7.23-1.66-14.54-3.06-21.69-7.18-36.55-24.95-66.36-57.47-85.66-26.37-15.65-53.87-18.42-81.75-3.18-.42.23-.92.31-1.68.56-.29-1.16-.7-2.23-.82-3.33-8.12-71.39-13.13-143-14.24-214.86-.39-25.46-2.99-50.55-12.68-74.44-4.98-12.29-11.56-23.62-20.15-33.75-.84-.99-1.55-2.07-2.97-3.99,4.61-.64,8.48-1.59,12.35-1.62,8.82-.06,17.65.35,26.48.52,2.5.05,5,.04,7.49-.16,12.02-.94,16.24-3.86,18.85-12.94,3.2-11.11.28-21.34-8.08-27.33-11.38-8.14-24.34-8.42-37.43-6.67-18.09,2.42-34.03,10.04-48.48,21.06-1.38,1.05-4.16,1.89-5.43,1.22-20.71-10.98-43.33-16.11-65.76-21.79-27.35-6.93-55.09-11.5-83.28-13.22-1.31-.08-2.59-.49-3.89-.75,127.33,0,254.67,0,382,0v502Z"/>
      <path class="cls-2" d="M311,0c-9.59.97-19.19,1.86-28.77,2.93-46.4,5.23-90.94,16.94-132.66,38.35-2.38,1.22-3.92.96-6.29-.25-23.15-11.86-46.11-11.34-68.55,1.94-6.36,3.76-10.32,15.6-8.16,22.69,2.26,7.42,11.6,14.38,20.22,13.58,9.54-.89,18.96-3.13,28.8-4.85-.35-.53.02-.17-.04-.04-13.91,27.36-18.32,56.93-19.5,87.05-1.17,30.12-1.5,60.28-1.94,90.43-1.02,69.92-13.11,137.77-37.46,203.39-14.19,38.23-28.3,76.5-42.24,114.82-6.67,18.34-12.15,37.03-13.68,56.64-.09,1.12-.48,2.22-.74,3.32,0-209.89,0-419.78,0-630,103.67,0,207.33,0,311,0Z"/>
      <path class="cls-2" d="M0,640c1.73,7.76,2.74,15.78,5.34,23.25,7.47,21.42,23.33,36.05,41.2,48.85,2.42,1.73,4.9,3.38,7.62,5.24-4.7,3.69-9.26,6.99-13.5,10.67-10.47,9.1-19.27,19.44-22.67,33.33-5.04,20.56,4.3,31.31,25.17,27.06,14.23-2.89,28.48-7.31,41.72-13.26,41.94-18.87,85.42-31.91,130.92-38.41,81.76-11.68,161.36-4.89,238.61,26,24.83,9.93,50.6,17.59,76.16,25.6,8.47,2.66,17.61,3.18,26.45,4.67H0c0-51,0-102,0-153Z"/>
      <path class="cls-2" d="M577,793c1.59-.37,3.19-.77,4.79-1.12,3.09-.68,6.24-1.14,9.27-2.02,20.5-6.02,24.95-21.59,9.82-36.58-6.04-5.98-13.93-10.09-21.02-15-1.31-.91-2.82-1.53-4.8-2.58,22.56-12.58,36.36-31.63,45.42-54.6.44-1.11,1.93-2.52,2.98-2.56,16.05-.58,28.88-8.53,40.9-18.01,41.86-33.02,66.64-75.47,70.77-129.2.11-1.46.58-2.9.88-4.35v266h-159Z"/>
      <path class="cls-2" d="M342.52,279.54c0,20.64-.11,41.29.08,61.93.04,4.78-1.37,6.61-6.3,5.89-9.7-1.42-19.48-2.31-29.17-3.79-10.06-1.54-16.91-7.08-20.03-17.06-6.6-21.11-13.5-42.12-19.95-63.28-2.86-9.38-4.84-19.02-7.41-28.5-.71-2.63-.54-4.1,2.18-5.52,23.43-12.24,48.29-18.73,74.72-19.4,3.44-.09,4.87.88,4.9,4.32.09,10.99.37,21.97.45,32.95.08,10.82.02,21.64.02,32.45.17,0,.34,0,.51,0Z"/>
      <path class="cls-2" d="M350.26,276.83c0-20.32.07-40.63-.06-60.95-.03-4.62,1.34-6.2,6.31-6,24.57.96,46.91,9.11,68.21,20.63,1.28.69,2.24,3.59,2,5.26-1.99,13.66-3.69,27.41-6.68,40.87-3.79,17.05-8.83,33.81-13.11,50.75-2.49,9.84-8.31,15.67-18.52,16.75-11.08,1.18-22.16,2.24-33.24,3.42-2.95.31-4.33-.79-4.4-3.82-.09-3.82-.59-7.64-.6-11.47-.07-18.48-.03-36.97-.03-55.45.04,0,.08,0,.12,0Z"/>
      <path class="cls-2" d="M343.82,134.18c23.07,1.31,46.03,1.91,68.57,7.04,3.53.8,7.05,2.08,10.26,3.74,5.4,2.8,5.6,6.18.57,9.74-3.24,2.29-6.79,4.27-10.46,5.77-26.61,10.87-54.06,17.58-83.07,16.39-23.6-.97-45.46-7.66-65.73-19.71-1.14-.68-2.23-1.47-3.23-2.34-4.1-3.54-4.05-7.25,1.01-9.21,7.07-2.74,14.48-5.35,21.95-6.19,19.98-2.26,40.07-3.56,60.12-5.23Z"/>
    </g>
    <circle class="cls-2" cx="179" cy="129" r="26.5"/>
    <circle class="cls-2" cx="497" cy="134" r="26.5"/>
    <circle class="cls-1" cx="179" cy="135.59" r="9.5"/>
    <circle class="cls-1" cx="500.29" cy="122" r="9.5"/>
  </g>
</svg>