<?xml version="1.0" encoding="UTF-8"?>
<svg id="Layer_2" data-name="Layer 2" xmlns="http://www.w3.org/2000/svg" viewBox="0 0 422.77 351.58">
  <defs>
    <style>
      .cls-1 {
        fill: #fff;
        font-family: Impact, Impact;
        font-size: 72px;
      }

      .cls-2 {
        fill: #e9178c;
        stroke-width: 0px;
      }
    </style>
  </defs>
  <g id="Layer_1-2" data-name="Layer 1">
    <path class="cls-2" d="M350.61,94.38c2.96,1.68,7.63,1.39,10.97,2.45,10.03,6.02.96,30.64,23.46,14.9,41.26-44.89,55.52-1.98,7.62,19.04-31.55,19.01.33,43.5-11.6,64.75-6.34,8.9-36.14,22.32-11.13,26.51,11.42,3.03,1.29,15.69,12.69,23.99,15.65,8.77,20.66,25.23-4.43,23.43-68.4-17.31-26.13,38.42-105.64,32.74-10.08,1.32-16.08,9.2-22.46,14.83-12.42,11.07-15.82-13.48-43.89-6.14-26.45-2.12-9.98,22.84-18.74,34.52-6.12,11.22-16.27,5.4-19.28-3.2-3.1-6.86-3.29-16.07-4.69-22.19-1.69-11.84-12.82-7.25-16.92-18.29-4.59-12.2-15.84-19.76-27.42-28.39-18.48-24.02-49.88-15.02-42.15-30.9,9.92-14.22,14.43-51.7-18.14-37.09-10.69,5.54-20.35,15.05-33.91,15.75-16.22,1.78-31.06-11.33-22.37-24.14,8.76-12.75,28.38-14.06,42.81-21.57,42.44-20.67-34.21-33.26,23.29-37.8,30.17-7.17,4.5-36.04,37.52-47.53,20.35-8.13,13.18-17.65,8.41-31.88-2.48-7.22,1.35-13.03,8.84-5.02,4.21,3.27,12.68,23.46,19.13,15.5,2.75-2.74,3.55-9.42,8.11-10.01,27.82,18.29,48.27,28.09,50.54-11.14-.82-37.02,60.15-69.02,85.68-28.92,13.99,18.09-18.28,44.48,3.87,58.81,7.11,2.56,16.02-2.76,22.45.17,5.07,2.65,5.59,17.92,13.57,14.05,14.38-11.56,6.2-36.83,24.72-46.02,22.36,3.2-11.81,40.05-.9,48.81Z"/>
    <text class="cls-1" transform="translate(99.88 201.95)"><tspan x="0" y="0">channel</tspan></text>
  </g>
</svg>